<?xml version='1.0' encoding='utf-8'?>
<svg xmlns="http://www.w3.org/2000/svg" width="4200" height="1041" viewBox="0 0 4200 1041">
  <rect width="4200" height="1041" fill="white" />
  <defs>
    <marker id="arr" markerWidth="10" markerHeight="10" refX="9" refY="4" orient="auto">
      <path d="M0,0 L0,8 L10,4 z" fill="#3B82F6" />
    </marker>
  </defs>
  <text x="2100.0" y="40" font-family="Arial" font-size="24" fill="black" text-anchor="middle" dominant-baseline="central" font-weight="bold">Learn@Home - Diagramme de Cas d'Usage</text>
  <circle cx="1554.0" cy="110" r="30" fill="#1D4ED8" />
  <line x1="1554.0" y1="140" x2="1554.0" y2="190" stroke="#1D4ED8" stroke-width="5" />
  <line x1="1519.0" y1="158" x2="1589.0" y2="158" stroke="#1D4ED8" stroke-width="5" />
  <line x1="1554.0" y1="190" x2="1529.0" y2="230" stroke="#1D4ED8" stroke-width="5" />
  <line x1="1554.0" y1="190" x2="1579.0" y2="230" stroke="#1D4ED8" stroke-width="5" />
  <text x="1554.0" y="82" font-family="Arial" font-size="14" fill="#444" text-anchor="middle" dominant-baseline="central" font-style="italic">«student»</text>
  <text x="1554.0" y="252" font-family="Arial" font-size="17" fill="#1E293B" text-anchor="middle" dominant-baseline="central" font-weight="bold">Eleve</text>
  <circle cx="2646.0" cy="110" r="30" fill="#7C3AED" />
  <line x1="2646.0" y1="140" x2="2646.0" y2="190" stroke="#7C3AED" stroke-width="5" />
  <line x1="2611.0" y1="158" x2="2681.0" y2="158" stroke="#7C3AED" stroke-width="5" />
  <line x1="2646.0" y1="190" x2="2621.0" y2="230" stroke="#7C3AED" stroke-width="5" />
  <line x1="2646.0" y1="190" x2="2671.0" y2="230" stroke="#7C3AED" stroke-width="5" />
  <text x="2646.0" y="82" font-family="Arial" font-size="14" fill="#444" text-anchor="middle" dominant-baseline="central" font-style="italic">«teacher»</text>
  <text x="2646.0" y="252" font-family="Arial" font-size="17" fill="#1E293B" text-anchor="middle" dominant-baseline="central" font-weight="bold">Tuteur</text>
  <rect x="28" y="330" width="674" height="671" rx="14" fill="#F0FDF4" stroke="#BFDBFE" stroke-width="2.5" />
  <text x="365.0" y="358" font-family="Arial" font-size="18" fill="#1D4ED8" text-anchor="middle" dominant-baseline="central" font-weight="bold">Non connecte</text>
  <rect x="235.0" y="385.0" width="260" height="50" rx="8" fill="#DBEAFE" stroke="#2563EB" stroke-width="2" />
  <text x="365.0" y="410.0" font-family="Arial" font-size="15" fill="#1E3A8A" text-anchor="middle" dominant-baseline="central" font-weight="bold">Se connecter</text>
  <rect x="235.0" y="465.0" width="260" height="50" rx="8" fill="#DBEAFE" stroke="#2563EB" stroke-width="2" />
  <text x="365.0" y="490.0" font-family="Arial" font-size="15" fill="#1E3A8A" text-anchor="middle" dominant-baseline="central" font-weight="bold">Creer un compte</text>
  <rect x="235.0" y="545.0" width="260" height="50" rx="8" fill="#DBEAFE" stroke="#2563EB" stroke-width="2" />
  <text x="365.0" y="570.0" font-family="Arial" font-size="15" fill="#1E3A8A" text-anchor="middle" dominant-baseline="central" font-weight="bold">Mot de passe oublie</text>
  <rect x="722" y="330" width="674" height="671" rx="14" fill="#F0F9FF" stroke="#BFDBFE" stroke-width="2.5" />
  <text x="1059.0" y="358" font-family="Arial" font-size="18" fill="#1D4ED8" text-anchor="middle" dominant-baseline="central" font-weight="bold">Tableau de bord</text>
  <rect x="929.0" y="385.0" width="260" height="50" rx="8" fill="#DBEAFE" stroke="#2563EB" stroke-width="2" />
  <text x="1059.0" y="410.0" font-family="Arial" font-size="15" fill="#1E3A8A" text-anchor="middle" dominant-baseline="central" font-weight="bold">Voir taches en cours</text>
  <rect x="929.0" y="465.0" width="260" height="50" rx="8" fill="#DBEAFE" stroke="#2563EB" stroke-width="2" />
  <text x="1059.0" y="490.0" font-family="Arial" font-size="15" fill="#1E3A8A" text-anchor="middle" dominant-baseline="central" font-weight="bold">Voir messages non lus</text>
  <rect x="929.0" y="545.0" width="260" height="50" rx="8" fill="#DBEAFE" stroke="#2563EB" stroke-width="2" />
  <text x="1059.0" y="570.0" font-family="Arial" font-size="15" fill="#1E3A8A" text-anchor="middle" dominant-baseline="central" font-weight="bold">Voir evenements a venir</text>
  <rect x="1416" y="330" width="674" height="671" rx="14" fill="#F5F3FF" stroke="#BFDBFE" stroke-width="2.5" />
  <text x="1753.0" y="358" font-family="Arial" font-size="18" fill="#1D4ED8" text-anchor="middle" dominant-baseline="central" font-weight="bold">Chat</text>
  <rect x="1623.0" y="385.0" width="260" height="50" rx="8" fill="#DBEAFE" stroke="#2563EB" stroke-width="2" />
  <text x="1753.0" y="410.0" font-family="Arial" font-size="15" fill="#1E3A8A" text-anchor="middle" dominant-baseline="central" font-weight="bold">Consulter une conversation</text>
  <rect x="1623.0" y="465.0" width="260" height="50" rx="8" fill="#DBEAFE" stroke="#2563EB" stroke-width="2" />
  <text x="1753.0" y="490.0" font-family="Arial" font-size="15" fill="#1E3A8A" text-anchor="middle" dominant-baseline="central" font-weight="bold">Envoyer un message</text>
  <rect x="1623.0" y="545.0" width="260" height="50" rx="8" fill="#DBEAFE" stroke="#2563EB" stroke-width="2" />
  <text x="1753.0" y="570.0" font-family="Arial" font-size="15" fill="#1E3A8A" text-anchor="middle" dominant-baseline="central" font-weight="bold">Joindre un fichier</text>
  <rect x="1623.0" y="625.0" width="260" height="50" rx="8" fill="#DBEAFE" stroke="#2563EB" stroke-width="2" />
  <text x="1753.0" y="650.0" font-family="Arial" font-size="15" fill="#1E3A8A" text-anchor="middle" dominant-baseline="central" font-weight="bold">Voir la liste des contacts</text>
  <rect x="1623.0" y="705.0" width="260" height="50" rx="8" fill="#DBEAFE" stroke="#2563EB" stroke-width="2" />
  <text x="1753.0" y="730.0" font-family="Arial" font-size="15" fill="#1E3A8A" text-anchor="middle" dominant-baseline="central" font-weight="bold">Voir details d'un contact</text>
  <rect x="1623.0" y="785.0" width="260" height="50" rx="8" fill="#DBEAFE" stroke="#2563EB" stroke-width="2" />
  <text x="1753.0" y="810.0" font-family="Arial" font-size="15" fill="#1E3A8A" text-anchor="middle" dominant-baseline="central" font-weight="bold">Ajouter un contact</text>
  <rect x="1623.0" y="865.0" width="260" height="50" rx="8" fill="#DBEAFE" stroke="#2563EB" stroke-width="2" />
  <text x="1753.0" y="890.0" font-family="Arial" font-size="15" fill="#1E3A8A" text-anchor="middle" dominant-baseline="central" font-weight="bold">Supprimer un contact</text>
  <rect x="2110" y="330" width="674" height="671" rx="14" fill="#FFFBEB" stroke="#BFDBFE" stroke-width="2.5" />
  <text x="2447.0" y="358" font-family="Arial" font-size="18" fill="#1D4ED8" text-anchor="middle" dominant-baseline="central" font-weight="bold">Calendrier</text>
  <rect x="2317.0" y="385.0" width="260" height="50" rx="8" fill="#DBEAFE" stroke="#2563EB" stroke-width="2" />
  <text x="2447.0" y="410.0" font-family="Arial" font-size="15" fill="#1E3A8A" text-anchor="middle" dominant-baseline="central" font-weight="bold">Consulter le calendrier</text>
  <rect x="2317.0" y="465.0" width="260" height="50" rx="8" fill="#DBEAFE" stroke="#2563EB" stroke-width="2" />
  <text x="2447.0" y="490.0" font-family="Arial" font-size="15" fill="#1E3A8A" text-anchor="middle" dominant-baseline="central" font-weight="bold">Voir details d'un evenement</text>
  <rect x="2317.0" y="545.0" width="260" height="50" rx="8" fill="#DBEAFE" stroke="#2563EB" stroke-width="2" />
  <text x="2447.0" y="570.0" font-family="Arial" font-size="15" fill="#1E3A8A" text-anchor="middle" dominant-baseline="central" font-weight="bold">Creer un evenement</text>
  <rect x="2317.0" y="625.0" width="260" height="50" rx="8" fill="#DBEAFE" stroke="#2563EB" stroke-width="2" />
  <text x="2447.0" y="650.0" font-family="Arial" font-size="15" fill="#1E3A8A" text-anchor="middle" dominant-baseline="central" font-weight="bold">Supprimer un evenement</text>
  <rect x="2804" y="330" width="674" height="671" rx="14" fill="#FFF1F2" stroke="#BFDBFE" stroke-width="2.5" />
  <text x="3141.0" y="358" font-family="Arial" font-size="18" fill="#1D4ED8" text-anchor="middle" dominant-baseline="central" font-weight="bold">Taches</text>
  <rect x="3011.0" y="385.0" width="260" height="50" rx="8" fill="#DBEAFE" stroke="#2563EB" stroke-width="2" />
  <text x="3141.0" y="410.0" font-family="Arial" font-size="15" fill="#1E3A8A" text-anchor="middle" dominant-baseline="central" font-weight="bold">Consulter la liste des taches</text>
  <rect x="3011.0" y="465.0" width="260" height="50" rx="8" fill="#DBEAFE" stroke="#2563EB" stroke-width="2" />
  <text x="3141.0" y="490.0" font-family="Arial" font-size="15" fill="#1E3A8A" text-anchor="middle" dominant-baseline="central" font-weight="bold">Voir details d'une tache</text>
  <rect x="3011.0" y="545.0" width="260" height="68" rx="8" fill="#FEF08A" stroke="#CA8A04" stroke-width="2" />
  <text x="3141.0" y="569.0" font-family="Arial" font-size="12" fill="#713F12" text-anchor="middle" dominant-baseline="central" font-style="italic">«eleve»</text>
  <text x="3141.0" y="587.0" font-family="Arial" font-size="15" fill="#713F12" text-anchor="middle" dominant-baseline="central" font-weight="bold">Creer une tache personnelle</text>
  <rect x="3011.0" y="643.0" width="260" height="68" rx="8" fill="#F5D0FE" stroke="#A21CAF" stroke-width="2" />
  <text x="3141.0" y="667.0" font-family="Arial" font-size="12" fill="#701A75" text-anchor="middle" dominant-baseline="central" font-style="italic">«tutor»</text>
  <text x="3141.0" y="685.0" font-family="Arial" font-size="15" fill="#701A75" text-anchor="middle" dominant-baseline="central" font-weight="bold">Creer et assigner une tache</text>
  <rect x="3011.0" y="741.0" width="260" height="50" rx="8" fill="#DBEAFE" stroke="#2563EB" stroke-width="2" />
  <text x="3141.0" y="766.0" font-family="Arial" font-size="15" fill="#1E3A8A" text-anchor="middle" dominant-baseline="central" font-weight="bold">Modifier une tache</text>
  <rect x="3011.0" y="821.0" width="260" height="50" rx="8" fill="#DBEAFE" stroke="#2563EB" stroke-width="2" />
  <text x="3141.0" y="846.0" font-family="Arial" font-size="15" fill="#1E3A8A" text-anchor="middle" dominant-baseline="central" font-weight="bold">Supprimer une tache</text>
  <rect x="3011.0" y="901.0" width="260" height="50" rx="8" fill="#DBEAFE" stroke="#2563EB" stroke-width="2" />
  <text x="3141.0" y="926.0" font-family="Arial" font-size="15" fill="#1E3A8A" text-anchor="middle" dominant-baseline="central" font-weight="bold">Marquer une tache completee</text>
  <rect x="3498" y="330" width="674" height="671" rx="14" fill="#F8FAFC" stroke="#BFDBFE" stroke-width="2.5" />
  <text x="3835.0" y="358" font-family="Arial" font-size="18" fill="#1D4ED8" text-anchor="middle" dominant-baseline="central" font-weight="bold">Parametres</text>
  <rect x="3705.0" y="385.0" width="260" height="50" rx="8" fill="#DBEAFE" stroke="#2563EB" stroke-width="2" />
  <text x="3835.0" y="410.0" font-family="Arial" font-size="15" fill="#1E3A8A" text-anchor="middle" dominant-baseline="central" font-weight="bold">Gerer les notifications</text>
  <rect x="3705.0" y="465.0" width="260" height="50" rx="8" fill="#DBEAFE" stroke="#2563EB" stroke-width="2" />
  <text x="3835.0" y="490.0" font-family="Arial" font-size="15" fill="#1E3A8A" text-anchor="middle" dominant-baseline="central" font-weight="bold">Telecharger mes donnees</text>
  <rect x="3705.0" y="545.0" width="260" height="50" rx="8" fill="#DBEAFE" stroke="#2563EB" stroke-width="2" />
  <text x="3835.0" y="570.0" font-family="Arial" font-size="15" fill="#1E3A8A" text-anchor="middle" dominant-baseline="central" font-weight="bold">Changer le mot de passe</text>
  <rect x="3705.0" y="625.0" width="260" height="50" rx="8" fill="#DBEAFE" stroke="#2563EB" stroke-width="2" />
  <text x="3835.0" y="650.0" font-family="Arial" font-size="15" fill="#1E3A8A" text-anchor="middle" dominant-baseline="central" font-weight="bold">Confidentialite et donnees</text>
  <rect x="3705.0" y="705.0" width="260" height="50" rx="8" fill="#DBEAFE" stroke="#2563EB" stroke-width="2" />
  <text x="3835.0" y="730.0" font-family="Arial" font-size="15" fill="#1E3A8A" text-anchor="middle" dominant-baseline="central" font-weight="bold">Mettre a jour infos perso</text>
  <rect x="3705.0" y="785.0" width="260" height="50" rx="8" fill="#DBEAFE" stroke="#2563EB" stroke-width="2" />
  <text x="3835.0" y="810.0" font-family="Arial" font-size="15" fill="#1E3A8A" text-anchor="middle" dominant-baseline="central" font-weight="bold">Preferences d'affichage</text>
  <rect x="3705.0" y="865.0" width="260" height="50" rx="8" fill="#DBEAFE" stroke="#2563EB" stroke-width="2" />
  <text x="3835.0" y="890.0" font-family="Arial" font-size="15" fill="#1E3A8A" text-anchor="middle" dominant-baseline="central" font-weight="bold">Supprimer mon compte</text>
  <line x1="1898.0" y1="515.0" x2="1898.0" y2="545.0" stroke="#3B82F6" stroke-width="2" stroke-dasharray="6,4" marker-end="url(#arr)" />
  <text x="1936.0" y="530.0" font-family="Arial" font-size="12" fill="#6B7280" text-anchor="middle" dominant-baseline="central">«include»</text>
  <line x1="1554.0" y1="230" x2="1554.0" y2="290" stroke="#3B82F6" stroke-width="2.2" />
  <line x1="2646.0" y1="230" x2="2646.0" y2="290" stroke="#3B82F6" stroke-width="2.2" />
  <line x1="365.0" y1="290" x2="3835.0" y2="290" stroke="#3B82F6" stroke-width="2.2" />
  <line x1="365.0" y1="290" x2="365.0" y2="330" stroke="#3B82F6" stroke-width="2.2" marker-end="url(#arr)" />
  <line x1="1059.0" y1="290" x2="1059.0" y2="330" stroke="#3B82F6" stroke-width="2.2" marker-end="url(#arr)" />
  <line x1="1753.0" y1="290" x2="1753.0" y2="330" stroke="#3B82F6" stroke-width="2.2" marker-end="url(#arr)" />
  <line x1="2447.0" y1="290" x2="2447.0" y2="330" stroke="#3B82F6" stroke-width="2.2" marker-end="url(#arr)" />
  <line x1="3141.0" y1="290" x2="3141.0" y2="330" stroke="#3B82F6" stroke-width="2.2" marker-end="url(#arr)" />
  <line x1="3835.0" y1="290" x2="3835.0" y2="330" stroke="#3B82F6" stroke-width="2.2" marker-end="url(#arr)" />
</svg>